{"title":"Pans Labyrinth [2006] 720p BRRip XviD AC3 - CODY","uid":6424970,"size":2327551446,"categoryP":"video","categoryS":"hd___movies","magnet":"?xt=urn:btih:a08901712ed174a5cb7866d8b133e2fd29f83672&amp;dn=Pans+Labyrinth+%5B2006%5D+720p+BRRip+XviD+AC3+-+CODY&amp;tr=udp%3A%2F%2Ftracker.openbittorrent.com%3A80&amp;tr=udp%3A%2F%2Fopen.demonii.com%3A1337&amp;tr=udp%3A%2F%2Ftracker.coppersurfer.tk%3A6969&amp;tr=udp%3A%2F%2Fexodus.desync.com%3A6969","seeders":3,"leechers":1,"uploader":"CODYBOSS1969","files":6,"time":1306434017,"description":"General\nComplete name                    : Pan's Labyrinth [2006] 720p BRRip XviD AC3 - CODY.avi\nFormat                           : AVI\nFormat/Info                      : Audio Video Interleave\nFormat profile                   : OpenDML\nFile size                        : 2.17 GiB\nDuration                         : 1h 58mn\nOverall bit rate                 : 2 610 Kbps\nWriting application              : VirtualDubMod 1.5.10.2 (build 2540/release)\nWriting library                  : VirtualDubMod build 2540/release\n\nVideo\nID                               : 0\nFormat                           : MPEG-4 Visual\nFormat profile                   : Advanced Simple@L5\nFormat settings, BVOP            : 2\nFormat settings, QPel            : No\nFormat settings, GMC             : No warppoints\nFormat settings, Matrix          : Default (H.263)\nMuxing mode                      : Packed bitstream\nCodec ID                         : XVID\nCodec ID/Hint                    : XviD\nDuration                         : 1h 58mn\nBit rate                         : 2 150 Kbps\nWidth                            : 1 280 pixels\nHeight                           : 688 pixels\nDisplay aspect ratio             : 1.860\nFrame rate                       : 23.976 fps\nColor space                      : YUV\nChroma subsampling               : 4:2:0\nBit depth                        : 8 bits\nScan type                        : Progressive\nCompression mode                 : Lossy\nBits/(Pixel*Frame)               : 0.102\nStream size                      : 1.79 GiB (82%)\nWriting library                  : XviD 1.2.0.dev47 (UTC 2006-11-01)\n\nAudio\nID                               : 1\nFormat                           : AC-3\nFormat/Info                      : Audio Coding 3\nMode extension                   : CM (complete main)\nCodec ID                         : 2000\nDuration                         : 1h 58mn\nBit rate mode                    : Constant\nBit rate                         : 448 Kbps\nChannel(s)                       : 6 channels\nChannel positions                : Front: L C R, Side: L R, LFE\nSampling rate                    : 48.0 KHz\nBit depth                        : 16 bits\nCompression mode                 : Lossy\nStream size                      : 381 MiB (17%)\nAlignment                        : Split accross interleaves\nInterleave, duration             : 42 ms (1.00 video frame)\nInterleave, preload duration     : 500 ms\n\n\n\nIMDB link:                             &lt;a href=&quot; http://www.imdb.com/title/tt0457430/&quot; rel=&quot;nofollow&quot; target=&quot;_NEW&quot;&gt; http://www.imdb.com/title/tt0457430/&lt;/a&gt;\n\n  \n  \nSubtitles Included                : Romanian, English\n\n\n\nPlease seed at least 1,5:1. This way this torrent has a chance to survive !!\n\n\n\n\nThanks. Enjoy!!\n","torrent":{"xt":"urn:btih:a08901712ed174a5cb7866d8b133e2fd29f83672","amp;dn":"Pans+Labyrinth+%5B2006%5D+720p+BRRip+XviD+AC3+-+CODY","amp;tr":["udp%3A%2F%2Ftracker.openbittorrent.com%3A80","udp%3A%2F%2Fopen.demonii.com%3A1337","udp%3A%2F%2Ftracker.coppersurfer.tk%3A6969","udp%3A%2F%2Fexodus.desync.com%3A6969"],"infoHash":"a08901712ed174a5cb7866d8b133e2fd29f83672","infoHashBuffer":{"type":"Buffer","data":[160,137,1,113,46,209,116,165,203,120,102,216,177,51,226,253,41,248,54,114]},"announce":[],"urlList":[]}}